<mxfile host="app.diagrams.net" agent="Mozilla/5.0 (Windows NT 10.0; Win64; x64) AppleWebKit/537.36 (KHTML, like Gecko) Chrome/131.0.0.0 Safari/537.36 Edg/131.0.0.0" version="25.0.1">
  <diagram id="C5RBs43oDa-KdzZeNtuy" name="Page-1">
    <mxGraphModel dx="3505" dy="1252" grid="1" gridSize="10" guides="1" tooltips="1" connect="1" arrows="1" fold="1" page="1" pageScale="1" pageWidth="827" pageHeight="1169" math="0" shadow="0">
      <root>
        <mxCell id="WIyWlLk6GJQsqaUBKTNV-0" />
        <mxCell id="WIyWlLk6GJQsqaUBKTNV-1" parent="WIyWlLk6GJQsqaUBKTNV-0" />
        <mxCell id="zkfFHV4jXpPFQw0GAbJ--17" value="Board&lt;T&gt;" style="swimlane;fontStyle=0;align=center;verticalAlign=top;childLayout=stackLayout;horizontal=1;startSize=26;horizontalStack=0;resizeParent=1;resizeLast=0;collapsible=1;marginBottom=0;rounded=0;shadow=0;strokeWidth=1;" parent="WIyWlLk6GJQsqaUBKTNV-1" vertex="1">
          <mxGeometry x="240" y="471" width="270" height="230" as="geometry">
            <mxRectangle x="550" y="140" width="160" height="26" as="alternateBounds" />
          </mxGeometry>
        </mxCell>
        <mxCell id="zkfFHV4jXpPFQw0GAbJ--18" value="- rows:int    &#xa;- columns:int&#xa;-  board:T**&#xa;- n_moves: int = 0&#xa;                                " style="text;align=left;verticalAlign=top;spacingLeft=4;spacingRight=4;overflow=hidden;rotatable=0;points=[[0,0.5],[1,0.5]];portConstraint=eastwest;" parent="zkfFHV4jXpPFQw0GAbJ--17" vertex="1">
          <mxGeometry y="26" width="270" height="64" as="geometry" />
        </mxCell>
        <mxCell id="zkfFHV4jXpPFQw0GAbJ--23" value="" style="line;html=1;strokeWidth=1;align=left;verticalAlign=middle;spacingTop=-1;spacingLeft=3;spacingRight=3;rotatable=0;labelPosition=right;points=[];portConstraint=eastwest;" parent="zkfFHV4jXpPFQw0GAbJ--17" vertex="1">
          <mxGeometry y="90" width="270" height="30" as="geometry" />
        </mxCell>
        <mxCell id="zkfFHV4jXpPFQw0GAbJ--25" value="+ update_board(int x,int y,T symbol):bool (abstract) &#xa;+ update_board( ):void (abstract)&#xa;+ is_win( ):bool (abstract)&#xa;+ is_draw( ):bool (abstract)&#xa;+ game_is_over( ):bool (abstract)" style="text;align=left;verticalAlign=top;spacingLeft=4;spacingRight=4;overflow=hidden;rotatable=0;points=[[0,0.5],[1,0.5]];portConstraint=eastwest;" parent="zkfFHV4jXpPFQw0GAbJ--17" vertex="1">
          <mxGeometry y="120" width="270" height="82" as="geometry" />
        </mxCell>
        <mxCell id="zNKK8UCFtOkdq3rbCEs4-1" value="Player&lt;T&gt;" style="swimlane;fontStyle=0;align=center;verticalAlign=top;childLayout=stackLayout;horizontal=1;startSize=26;horizontalStack=0;resizeParent=1;resizeLast=0;collapsible=1;marginBottom=0;rounded=0;shadow=0;strokeWidth=1;" vertex="1" parent="WIyWlLk6GJQsqaUBKTNV-1">
          <mxGeometry x="640" y="471" width="270" height="230" as="geometry">
            <mxRectangle x="550" y="140" width="160" height="26" as="alternateBounds" />
          </mxGeometry>
        </mxCell>
        <mxCell id="zNKK8UCFtOkdq3rbCEs4-2" value="# name:string    &#xa;# symbol:T&#xa;#  board:T**&#xa;# boardPtr:Board&lt;T&gt;*&#xa;                                " style="text;align=left;verticalAlign=top;spacingLeft=4;spacingRight=4;overflow=hidden;rotatable=0;points=[[0,0.5],[1,0.5]];portConstraint=eastwest;" vertex="1" parent="zNKK8UCFtOkdq3rbCEs4-1">
          <mxGeometry y="26" width="270" height="64" as="geometry" />
        </mxCell>
        <mxCell id="zNKK8UCFtOkdq3rbCEs4-3" value="" style="line;html=1;strokeWidth=1;align=left;verticalAlign=middle;spacingTop=-1;spacingLeft=3;spacingRight=3;rotatable=0;labelPosition=right;points=[];portConstraint=eastwest;" vertex="1" parent="zNKK8UCFtOkdq3rbCEs4-1">
          <mxGeometry y="90" width="270" height="30" as="geometry" />
        </mxCell>
        <mxCell id="zNKK8UCFtOkdq3rbCEs4-4" value="+ Player(string n,T symbol)&#xa;+ Player(T symbol)&#xa;+ getmove(int &amp; x, int &amp; y):void (abstract)&#xa;+ getsymbol():T&#xa;+ getname():string&#xa;+ setBoard(Board&lt;T&gt;* b)" style="text;align=left;verticalAlign=top;spacingLeft=4;spacingRight=4;overflow=hidden;rotatable=0;points=[[0,0.5],[1,0.5]];portConstraint=eastwest;" vertex="1" parent="zNKK8UCFtOkdq3rbCEs4-1">
          <mxGeometry y="120" width="270" height="100" as="geometry" />
        </mxCell>
        <mxCell id="zNKK8UCFtOkdq3rbCEs4-5" value="" style="endArrow=block;endSize=16;endFill=0;html=1;rounded=0;entryX=0.5;entryY=1;entryDx=0;entryDy=0;exitX=0.5;exitY=0;exitDx=0;exitDy=0;" edge="1" parent="WIyWlLk6GJQsqaUBKTNV-1" source="zNKK8UCFtOkdq3rbCEs4-6" target="zNKK8UCFtOkdq3rbCEs4-1">
          <mxGeometry width="160" relative="1" as="geometry">
            <mxPoint x="775" y="790" as="sourcePoint" />
            <mxPoint x="990" y="740" as="targetPoint" />
          </mxGeometry>
        </mxCell>
        <mxCell id="zNKK8UCFtOkdq3rbCEs4-6" value="RandomPlayer&lt;T&gt;" style="swimlane;fontStyle=0;align=center;verticalAlign=top;childLayout=stackLayout;horizontal=1;startSize=26;horizontalStack=0;resizeParent=1;resizeLast=0;collapsible=1;marginBottom=0;rounded=0;shadow=0;strokeWidth=1;" vertex="1" parent="WIyWlLk6GJQsqaUBKTNV-1">
          <mxGeometry x="640" y="800" width="270" height="150" as="geometry">
            <mxRectangle x="550" y="140" width="160" height="26" as="alternateBounds" />
          </mxGeometry>
        </mxCell>
        <mxCell id="zNKK8UCFtOkdq3rbCEs4-7" value="# dimesnsion:int    &#xa;                                " style="text;align=left;verticalAlign=top;spacingLeft=4;spacingRight=4;overflow=hidden;rotatable=0;points=[[0,0.5],[1,0.5]];portConstraint=eastwest;" vertex="1" parent="zNKK8UCFtOkdq3rbCEs4-6">
          <mxGeometry y="26" width="270" height="34" as="geometry" />
        </mxCell>
        <mxCell id="zNKK8UCFtOkdq3rbCEs4-8" value="" style="line;html=1;strokeWidth=1;align=left;verticalAlign=middle;spacingTop=-1;spacingLeft=3;spacingRight=3;rotatable=0;labelPosition=right;points=[];portConstraint=eastwest;" vertex="1" parent="zNKK8UCFtOkdq3rbCEs4-6">
          <mxGeometry y="60" width="270" height="20" as="geometry" />
        </mxCell>
        <mxCell id="zNKK8UCFtOkdq3rbCEs4-9" value="+ RandomPlayer(T symbol)&#xa;+ getmove(int &amp; x, int &amp; y):void (abstract)&#xa;" style="text;align=left;verticalAlign=top;spacingLeft=4;spacingRight=4;overflow=hidden;rotatable=0;points=[[0,0.5],[1,0.5]];portConstraint=eastwest;" vertex="1" parent="zNKK8UCFtOkdq3rbCEs4-6">
          <mxGeometry y="80" width="270" height="50" as="geometry" />
        </mxCell>
        <mxCell id="zNKK8UCFtOkdq3rbCEs4-14" value="GameManager&lt;T&gt;" style="swimlane;fontStyle=0;align=center;verticalAlign=top;childLayout=stackLayout;horizontal=1;startSize=26;horizontalStack=0;resizeParent=1;resizeLast=0;collapsible=1;marginBottom=0;rounded=0;shadow=0;strokeWidth=1;" vertex="1" parent="WIyWlLk6GJQsqaUBKTNV-1">
          <mxGeometry x="400" y="170" width="310" height="110" as="geometry">
            <mxRectangle x="550" y="140" width="160" height="26" as="alternateBounds" />
          </mxGeometry>
        </mxCell>
        <mxCell id="zNKK8UCFtOkdq3rbCEs4-16" value="" style="line;html=1;strokeWidth=1;align=left;verticalAlign=middle;spacingTop=-1;spacingLeft=3;spacingRight=3;rotatable=0;labelPosition=right;points=[];portConstraint=eastwest;" vertex="1" parent="zNKK8UCFtOkdq3rbCEs4-14">
          <mxGeometry y="26" width="310" height="30" as="geometry" />
        </mxCell>
        <mxCell id="zNKK8UCFtOkdq3rbCEs4-17" value="+ GameManager(Board&lt;T&gt;* , Player&lt;T&gt;* playerPtr[2] )&#xa;+ run( ):void" style="text;align=left;verticalAlign=top;spacingLeft=4;spacingRight=4;overflow=hidden;rotatable=0;points=[[0,0.5],[1,0.5]];portConstraint=eastwest;" vertex="1" parent="zNKK8UCFtOkdq3rbCEs4-14">
          <mxGeometry y="56" width="310" height="54" as="geometry" />
        </mxCell>
        <mxCell id="zNKK8UCFtOkdq3rbCEs4-19" value="Use" style="endArrow=open;endSize=12;dashed=1;html=1;rounded=0;entryX=0.622;entryY=0.009;entryDx=0;entryDy=0;entryPerimeter=0;exitX=0.361;exitY=0.981;exitDx=0;exitDy=0;exitPerimeter=0;" edge="1" parent="WIyWlLk6GJQsqaUBKTNV-1" source="zNKK8UCFtOkdq3rbCEs4-17" target="zkfFHV4jXpPFQw0GAbJ--17">
          <mxGeometry width="160" relative="1" as="geometry">
            <mxPoint x="460" y="430" as="sourcePoint" />
            <mxPoint x="620" y="430" as="targetPoint" />
          </mxGeometry>
        </mxCell>
        <mxCell id="zNKK8UCFtOkdq3rbCEs4-20" value="Use" style="endArrow=open;endSize=12;dashed=1;html=1;rounded=0;exitX=0.384;exitY=0.981;exitDx=0;exitDy=0;exitPerimeter=0;" edge="1" parent="WIyWlLk6GJQsqaUBKTNV-1" source="zNKK8UCFtOkdq3rbCEs4-17">
          <mxGeometry width="160" relative="1" as="geometry">
            <mxPoint x="522" y="289" as="sourcePoint" />
            <mxPoint x="690" y="470" as="targetPoint" />
          </mxGeometry>
        </mxCell>
        <mxCell id="zNKK8UCFtOkdq3rbCEs4-21" value="PyramicTicTacToe_Board&lt;T&gt;" style="swimlane;fontStyle=0;align=center;verticalAlign=top;childLayout=stackLayout;horizontal=1;startSize=26;horizontalStack=0;resizeParent=1;resizeLast=0;collapsible=1;marginBottom=0;rounded=0;shadow=0;strokeWidth=1;" vertex="1" parent="WIyWlLk6GJQsqaUBKTNV-1">
          <mxGeometry x="180" y="1080" width="390" height="160" as="geometry">
            <mxRectangle x="550" y="140" width="160" height="26" as="alternateBounds" />
          </mxGeometry>
        </mxCell>
        <mxCell id="zNKK8UCFtOkdq3rbCEs4-23" value="" style="line;html=1;strokeWidth=1;align=left;verticalAlign=middle;spacingTop=-1;spacingLeft=3;spacingRight=3;rotatable=0;labelPosition=right;points=[];portConstraint=eastwest;" vertex="1" parent="zNKK8UCFtOkdq3rbCEs4-21">
          <mxGeometry y="26" width="390" height="30" as="geometry" />
        </mxCell>
        <mxCell id="zNKK8UCFtOkdq3rbCEs4-24" value="+ PyramicTicTacToe_Board()+ update_board(int x,int y,T symbol):bool  &#xa;+ update_board( ):void &#xa;+ is_win( ):bool &#xa;+ is_draw( ):bool &#xa;+ game_is_over( ):bool " style="text;align=left;verticalAlign=top;spacingLeft=4;spacingRight=4;overflow=hidden;rotatable=0;points=[[0,0.5],[1,0.5]];portConstraint=eastwest;" vertex="1" parent="zNKK8UCFtOkdq3rbCEs4-21">
          <mxGeometry y="56" width="390" height="82" as="geometry" />
        </mxCell>
        <mxCell id="zNKK8UCFtOkdq3rbCEs4-25" value="" style="endArrow=block;endSize=16;endFill=0;html=1;rounded=0;entryX=0.5;entryY=1;entryDx=0;entryDy=0;" edge="1" parent="WIyWlLk6GJQsqaUBKTNV-1" source="zNKK8UCFtOkdq3rbCEs4-21" target="zkfFHV4jXpPFQw0GAbJ--17">
          <mxGeometry width="160" relative="1" as="geometry">
            <mxPoint x="394.5" y="1009" as="sourcePoint" />
            <mxPoint x="394.5" y="910" as="targetPoint" />
          </mxGeometry>
        </mxCell>
        <mxCell id="zNKK8UCFtOkdq3rbCEs4-26" value="PyramicTicTacToe_Player&lt;T&gt;" style="swimlane;fontStyle=0;align=center;verticalAlign=top;childLayout=stackLayout;horizontal=1;startSize=26;horizontalStack=0;resizeParent=1;resizeLast=0;collapsible=1;marginBottom=0;rounded=0;shadow=0;strokeWidth=1;" vertex="1" parent="WIyWlLk6GJQsqaUBKTNV-1">
          <mxGeometry x="1010" y="800" width="270" height="116" as="geometry">
            <mxRectangle x="550" y="140" width="160" height="26" as="alternateBounds" />
          </mxGeometry>
        </mxCell>
        <mxCell id="zNKK8UCFtOkdq3rbCEs4-28" value="" style="line;html=1;strokeWidth=1;align=left;verticalAlign=middle;spacingTop=-1;spacingLeft=3;spacingRight=3;rotatable=0;labelPosition=right;points=[];portConstraint=eastwest;" vertex="1" parent="zNKK8UCFtOkdq3rbCEs4-26">
          <mxGeometry y="26" width="270" height="30" as="geometry" />
        </mxCell>
        <mxCell id="zNKK8UCFtOkdq3rbCEs4-29" value="+ PyramicPlayer(string n,T symbol)&#xa;+ getmove(int &amp; x, int &amp; y):void (abstract)&#xa;&#xa;" style="text;align=left;verticalAlign=top;spacingLeft=4;spacingRight=4;overflow=hidden;rotatable=0;points=[[0,0.5],[1,0.5]];portConstraint=eastwest;" vertex="1" parent="zNKK8UCFtOkdq3rbCEs4-26">
          <mxGeometry y="56" width="270" height="60" as="geometry" />
        </mxCell>
        <mxCell id="zNKK8UCFtOkdq3rbCEs4-30" value="" style="endArrow=block;endSize=16;endFill=0;html=1;rounded=0;entryX=1;entryY=1;entryDx=0;entryDy=0;exitX=0.144;exitY=0.017;exitDx=0;exitDy=0;exitPerimeter=0;" edge="1" parent="WIyWlLk6GJQsqaUBKTNV-1" source="zNKK8UCFtOkdq3rbCEs4-26" target="zNKK8UCFtOkdq3rbCEs4-1">
          <mxGeometry width="160" relative="1" as="geometry">
            <mxPoint x="1030" y="789" as="sourcePoint" />
            <mxPoint x="1030" y="690" as="targetPoint" />
          </mxGeometry>
        </mxCell>
        <mxCell id="zNKK8UCFtOkdq3rbCEs4-31" value="PyramicTicTacToe_Random_Player&lt;T&gt;" style="swimlane;fontStyle=0;align=center;verticalAlign=top;childLayout=stackLayout;horizontal=1;startSize=26;horizontalStack=0;resizeParent=1;resizeLast=0;collapsible=1;marginBottom=0;rounded=0;shadow=0;strokeWidth=1;" vertex="1" parent="WIyWlLk6GJQsqaUBKTNV-1">
          <mxGeometry x="640" y="1090" width="270" height="100" as="geometry">
            <mxRectangle x="550" y="140" width="160" height="26" as="alternateBounds" />
          </mxGeometry>
        </mxCell>
        <mxCell id="zNKK8UCFtOkdq3rbCEs4-33" value="" style="line;html=1;strokeWidth=1;align=left;verticalAlign=middle;spacingTop=-1;spacingLeft=3;spacingRight=3;rotatable=0;labelPosition=right;points=[];portConstraint=eastwest;" vertex="1" parent="zNKK8UCFtOkdq3rbCEs4-31">
          <mxGeometry y="26" width="270" height="20" as="geometry" />
        </mxCell>
        <mxCell id="zNKK8UCFtOkdq3rbCEs4-34" value="+ PyramicTicTacToe_Random_Player(T symbol)&#xa;+ getmove(int &amp; x, int &amp; y):void " style="text;align=left;verticalAlign=top;spacingLeft=4;spacingRight=4;overflow=hidden;rotatable=0;points=[[0,0.5],[1,0.5]];portConstraint=eastwest;" vertex="1" parent="zNKK8UCFtOkdq3rbCEs4-31">
          <mxGeometry y="46" width="270" height="50" as="geometry" />
        </mxCell>
        <mxCell id="zNKK8UCFtOkdq3rbCEs4-35" value="" style="endArrow=block;endSize=16;endFill=0;html=1;rounded=0;exitX=0.404;exitY=-0.027;exitDx=0;exitDy=0;exitPerimeter=0;" edge="1" parent="WIyWlLk6GJQsqaUBKTNV-1" source="zNKK8UCFtOkdq3rbCEs4-31">
          <mxGeometry width="160" relative="1" as="geometry">
            <mxPoint x="750" y="1069" as="sourcePoint" />
            <mxPoint x="750" y="950" as="targetPoint" />
          </mxGeometry>
        </mxCell>
        <mxCell id="zNKK8UCFtOkdq3rbCEs4-36" value="WORD_TICTACTOE_Board&lt;T&gt;" style="swimlane;fontStyle=0;align=center;verticalAlign=top;childLayout=stackLayout;horizontal=1;startSize=26;horizontalStack=0;resizeParent=1;resizeLast=0;collapsible=1;marginBottom=0;rounded=0;shadow=0;strokeWidth=1;" vertex="1" parent="WIyWlLk6GJQsqaUBKTNV-1">
          <mxGeometry x="-280" y="1080" width="390" height="230" as="geometry">
            <mxRectangle x="550" y="140" width="160" height="26" as="alternateBounds" />
          </mxGeometry>
        </mxCell>
        <mxCell id="zNKK8UCFtOkdq3rbCEs4-37" value="- _Words:static vector &lt;string&gt;" style="text;align=left;verticalAlign=top;spacingLeft=4;spacingRight=4;overflow=hidden;rotatable=0;points=[[0,0.5],[1,0.5]];portConstraint=eastwest;" vertex="1" parent="zNKK8UCFtOkdq3rbCEs4-36">
          <mxGeometry y="26" width="390" height="34" as="geometry" />
        </mxCell>
        <mxCell id="zNKK8UCFtOkdq3rbCEs4-38" value="" style="line;html=1;strokeWidth=1;align=left;verticalAlign=middle;spacingTop=-1;spacingLeft=3;spacingRight=3;rotatable=0;labelPosition=right;points=[];portConstraint=eastwest;" vertex="1" parent="zNKK8UCFtOkdq3rbCEs4-36">
          <mxGeometry y="60" width="390" height="30" as="geometry" />
        </mxCell>
        <mxCell id="zNKK8UCFtOkdq3rbCEs4-39" value="+ WORD_TICTACTOE_Board(vector&lt;string&gt;Words)&#xa;+ update_board(int x,int y,T symbol):bool  &#xa;+ update_board( ):void &#xa;+ is_win( ):bool &#xa;+ is_draw( ):bool &#xa;+ game_is_over( ):bool &#xa;+ ReserveWord(string word):string&#xa;+ IsValidWord(vector&lt;string&gt; Words,string word):bool&#xa;" style="text;align=left;verticalAlign=top;spacingLeft=4;spacingRight=4;overflow=hidden;rotatable=0;points=[[0,0.5],[1,0.5]];portConstraint=eastwest;" vertex="1" parent="zNKK8UCFtOkdq3rbCEs4-36">
          <mxGeometry y="90" width="390" height="140" as="geometry" />
        </mxCell>
        <mxCell id="zNKK8UCFtOkdq3rbCEs4-40" value="" style="endArrow=block;endSize=16;endFill=0;html=1;rounded=0;exitX=0.462;exitY=0;exitDx=0;exitDy=0;exitPerimeter=0;" edge="1" parent="WIyWlLk6GJQsqaUBKTNV-1" source="zNKK8UCFtOkdq3rbCEs4-36">
          <mxGeometry width="160" relative="1" as="geometry">
            <mxPoint x="150" y="1079.5" as="sourcePoint" />
            <mxPoint x="260" y="701" as="targetPoint" />
          </mxGeometry>
        </mxCell>
        <mxCell id="zNKK8UCFtOkdq3rbCEs4-41" value="WORD_TICTACTOE_Player&lt;T&gt;" style="swimlane;fontStyle=0;align=center;verticalAlign=top;childLayout=stackLayout;horizontal=1;startSize=26;horizontalStack=0;resizeParent=1;resizeLast=0;collapsible=1;marginBottom=0;rounded=0;shadow=0;strokeWidth=1;" vertex="1" parent="WIyWlLk6GJQsqaUBKTNV-1">
          <mxGeometry x="1360" y="800" width="270" height="120" as="geometry">
            <mxRectangle x="550" y="140" width="160" height="26" as="alternateBounds" />
          </mxGeometry>
        </mxCell>
        <mxCell id="zNKK8UCFtOkdq3rbCEs4-43" value="" style="line;html=1;strokeWidth=1;align=left;verticalAlign=middle;spacingTop=-1;spacingLeft=3;spacingRight=3;rotatable=0;labelPosition=right;points=[];portConstraint=eastwest;" vertex="1" parent="zNKK8UCFtOkdq3rbCEs4-41">
          <mxGeometry y="26" width="270" height="30" as="geometry" />
        </mxCell>
        <mxCell id="zNKK8UCFtOkdq3rbCEs4-44" value="+ WORD_TICTACTOE_Player(string n,T symbol)&#xa;+ getmove(int &amp; x, int &amp; y):void (abstract)&#xa;&#xa;" style="text;align=left;verticalAlign=top;spacingLeft=4;spacingRight=4;overflow=hidden;rotatable=0;points=[[0,0.5],[1,0.5]];portConstraint=eastwest;" vertex="1" parent="zNKK8UCFtOkdq3rbCEs4-41">
          <mxGeometry y="56" width="270" height="60" as="geometry" />
        </mxCell>
        <mxCell id="zNKK8UCFtOkdq3rbCEs4-45" value="" style="endArrow=block;endSize=16;endFill=0;html=1;rounded=0;entryX=1;entryY=0.19;entryDx=0;entryDy=0;exitX=0;exitY=0;exitDx=0;exitDy=0;entryPerimeter=0;" edge="1" parent="WIyWlLk6GJQsqaUBKTNV-1" source="zNKK8UCFtOkdq3rbCEs4-41" target="zNKK8UCFtOkdq3rbCEs4-4">
          <mxGeometry width="160" relative="1" as="geometry">
            <mxPoint x="1119" y="751" as="sourcePoint" />
            <mxPoint x="980" y="650" as="targetPoint" />
          </mxGeometry>
        </mxCell>
        <mxCell id="zNKK8UCFtOkdq3rbCEs4-46" value=" WORD_TICTACTOE_Random_Player&lt;T&gt;" style="swimlane;fontStyle=0;align=center;verticalAlign=top;childLayout=stackLayout;horizontal=1;startSize=26;horizontalStack=0;resizeParent=1;resizeLast=0;collapsible=1;marginBottom=0;rounded=0;shadow=0;strokeWidth=1;" vertex="1" parent="WIyWlLk6GJQsqaUBKTNV-1">
          <mxGeometry x="1330" y="1090" width="290" height="100" as="geometry">
            <mxRectangle x="550" y="140" width="160" height="26" as="alternateBounds" />
          </mxGeometry>
        </mxCell>
        <mxCell id="zNKK8UCFtOkdq3rbCEs4-47" value="" style="line;html=1;strokeWidth=1;align=left;verticalAlign=middle;spacingTop=-1;spacingLeft=3;spacingRight=3;rotatable=0;labelPosition=right;points=[];portConstraint=eastwest;" vertex="1" parent="zNKK8UCFtOkdq3rbCEs4-46">
          <mxGeometry y="26" width="290" height="20" as="geometry" />
        </mxCell>
        <mxCell id="zNKK8UCFtOkdq3rbCEs4-48" value="+  WORD_TICTACTOE_Random_Player(T symbol)&#xa;+ getmove(int &amp; x, int &amp; y):void " style="text;align=left;verticalAlign=top;spacingLeft=4;spacingRight=4;overflow=hidden;rotatable=0;points=[[0,0.5],[1,0.5]];portConstraint=eastwest;" vertex="1" parent="zNKK8UCFtOkdq3rbCEs4-46">
          <mxGeometry y="46" width="290" height="50" as="geometry" />
        </mxCell>
        <mxCell id="zNKK8UCFtOkdq3rbCEs4-49" value="" style="endArrow=block;endSize=16;endFill=0;html=1;rounded=0;exitX=0.055;exitY=0;exitDx=0;exitDy=0;exitPerimeter=0;entryX=1;entryY=1;entryDx=0;entryDy=0;" edge="1" parent="WIyWlLk6GJQsqaUBKTNV-1" source="zNKK8UCFtOkdq3rbCEs4-46" target="zNKK8UCFtOkdq3rbCEs4-6">
          <mxGeometry width="160" relative="1" as="geometry">
            <mxPoint x="990" y="1087" as="sourcePoint" />
            <mxPoint x="991" y="950" as="targetPoint" />
          </mxGeometry>
        </mxCell>
        <mxCell id="zNKK8UCFtOkdq3rbCEs4-50" value="FourXFourTicTacToe_Board&lt;T&gt;" style="swimlane;fontStyle=0;align=center;verticalAlign=top;childLayout=stackLayout;horizontal=1;startSize=26;horizontalStack=0;resizeParent=1;resizeLast=0;collapsible=1;marginBottom=0;rounded=0;shadow=0;strokeWidth=1;" vertex="1" parent="WIyWlLk6GJQsqaUBKTNV-1">
          <mxGeometry x="-750" y="1080" width="390" height="170" as="geometry">
            <mxRectangle x="550" y="140" width="160" height="26" as="alternateBounds" />
          </mxGeometry>
        </mxCell>
        <mxCell id="zNKK8UCFtOkdq3rbCEs4-52" value="" style="line;html=1;strokeWidth=1;align=left;verticalAlign=middle;spacingTop=-1;spacingLeft=3;spacingRight=3;rotatable=0;labelPosition=right;points=[];portConstraint=eastwest;" vertex="1" parent="zNKK8UCFtOkdq3rbCEs4-50">
          <mxGeometry y="26" width="390" height="30" as="geometry" />
        </mxCell>
        <mxCell id="zNKK8UCFtOkdq3rbCEs4-53" value="+ FourXFourTicTacToe_Board()&#xa;+ update_board(int x,int y,T symbol):bool  &#xa;+ update_board( ):void &#xa;+ is_win( ):bool &#xa;+ is_draw( ):bool &#xa;+ game_is_over( ):bool &#xa;" style="text;align=left;verticalAlign=top;spacingLeft=4;spacingRight=4;overflow=hidden;rotatable=0;points=[[0,0.5],[1,0.5]];portConstraint=eastwest;" vertex="1" parent="zNKK8UCFtOkdq3rbCEs4-50">
          <mxGeometry y="56" width="390" height="104" as="geometry" />
        </mxCell>
        <mxCell id="zNKK8UCFtOkdq3rbCEs4-54" value="" style="endArrow=block;endSize=16;endFill=0;html=1;rounded=0;exitX=1.005;exitY=0.053;exitDx=0;exitDy=0;exitPerimeter=0;" edge="1" parent="WIyWlLk6GJQsqaUBKTNV-1" source="zNKK8UCFtOkdq3rbCEs4-50">
          <mxGeometry width="160" relative="1" as="geometry">
            <mxPoint x="-190" y="1047.5" as="sourcePoint" />
            <mxPoint x="240" y="680" as="targetPoint" />
          </mxGeometry>
        </mxCell>
        <mxCell id="zNKK8UCFtOkdq3rbCEs4-55" value="FourXFourTicTacToe_Random_Player&lt;T&gt;" style="swimlane;fontStyle=0;align=center;verticalAlign=top;childLayout=stackLayout;horizontal=1;startSize=26;horizontalStack=0;resizeParent=1;resizeLast=0;collapsible=1;marginBottom=0;rounded=0;shadow=0;strokeWidth=1;" vertex="1" parent="WIyWlLk6GJQsqaUBKTNV-1">
          <mxGeometry x="940" y="1090" width="340" height="170" as="geometry">
            <mxRectangle x="550" y="140" width="160" height="26" as="alternateBounds" />
          </mxGeometry>
        </mxCell>
        <mxCell id="zNKK8UCFtOkdq3rbCEs4-56" value="" style="line;html=1;strokeWidth=1;align=left;verticalAlign=middle;spacingTop=-1;spacingLeft=3;spacingRight=3;rotatable=0;labelPosition=right;points=[];portConstraint=eastwest;" vertex="1" parent="zNKK8UCFtOkdq3rbCEs4-55">
          <mxGeometry y="26" width="340" height="20" as="geometry" />
        </mxCell>
        <mxCell id="zNKK8UCFtOkdq3rbCEs4-57" value="+ FourXFourTicTacToe_Random_Player(T symbol)&#xa;+ getmove(int &amp; x, int &amp; y):void &#xa;+ generatePositionsList(int x , int y, vector &lt;string&gt;&amp; list):bool&#xa;+ IsValidMove(int x,int y,vector &lt;string&gt;list)&#xa;+ isCellEmpty(int x, int y)&#xa;+ isValidSymbol(int x,int y):bool&#xa;+ setBoard(Board&lt;T&gt;* b):void" style="text;align=left;verticalAlign=top;spacingLeft=4;spacingRight=4;overflow=hidden;rotatable=0;points=[[0,0.5],[1,0.5]];portConstraint=eastwest;" vertex="1" parent="zNKK8UCFtOkdq3rbCEs4-55">
          <mxGeometry y="46" width="340" height="124" as="geometry" />
        </mxCell>
        <mxCell id="zNKK8UCFtOkdq3rbCEs4-58" value="" style="endArrow=block;endSize=16;endFill=0;html=1;rounded=0;exitX=0.056;exitY=0.012;exitDx=0;exitDy=0;exitPerimeter=0;" edge="1" parent="WIyWlLk6GJQsqaUBKTNV-1" source="zNKK8UCFtOkdq3rbCEs4-55">
          <mxGeometry width="160" relative="1" as="geometry">
            <mxPoint x="940" y="1137" as="sourcePoint" />
            <mxPoint x="870" y="950" as="targetPoint" />
          </mxGeometry>
        </mxCell>
        <mxCell id="zNKK8UCFtOkdq3rbCEs4-59" value="FourXFourTicTacToe_Player&lt;T&gt;" style="swimlane;fontStyle=0;align=center;verticalAlign=top;childLayout=stackLayout;horizontal=1;startSize=26;horizontalStack=0;resizeParent=1;resizeLast=0;collapsible=1;marginBottom=0;rounded=0;shadow=0;strokeWidth=1;" vertex="1" parent="WIyWlLk6GJQsqaUBKTNV-1">
          <mxGeometry x="1690" y="750" width="340" height="170" as="geometry">
            <mxRectangle x="550" y="140" width="160" height="26" as="alternateBounds" />
          </mxGeometry>
        </mxCell>
        <mxCell id="zNKK8UCFtOkdq3rbCEs4-60" value="" style="line;html=1;strokeWidth=1;align=left;verticalAlign=middle;spacingTop=-1;spacingLeft=3;spacingRight=3;rotatable=0;labelPosition=right;points=[];portConstraint=eastwest;" vertex="1" parent="zNKK8UCFtOkdq3rbCEs4-59">
          <mxGeometry y="26" width="340" height="20" as="geometry" />
        </mxCell>
        <mxCell id="zNKK8UCFtOkdq3rbCEs4-61" value="+ FourXFourTicTacToe_Player(string name, T symbol)&#xa;+ getmove(int &amp; x, int &amp; y):void &#xa;+ generatePositionsList(int x , int y, vector &lt;string&gt;&amp; list):bool&#xa;+ IsValidMove(int x,int y,vector &lt;string&gt;list)&#xa;+ isCellEmpty(int x, int y)&#xa;+ isValidSymbol(int x,int y):bool&#xa;+ setBoard(Board&lt;T&gt;* b):void" style="text;align=left;verticalAlign=top;spacingLeft=4;spacingRight=4;overflow=hidden;rotatable=0;points=[[0,0.5],[1,0.5]];portConstraint=eastwest;" vertex="1" parent="zNKK8UCFtOkdq3rbCEs4-59">
          <mxGeometry y="46" width="340" height="124" as="geometry" />
        </mxCell>
        <mxCell id="zNKK8UCFtOkdq3rbCEs4-62" value="" style="endArrow=block;endSize=16;endFill=0;html=1;rounded=0;entryX=1;entryY=0.766;entryDx=0;entryDy=0;exitX=-0.009;exitY=0.041;exitDx=0;exitDy=0;entryPerimeter=0;exitPerimeter=0;" edge="1" parent="WIyWlLk6GJQsqaUBKTNV-1" source="zNKK8UCFtOkdq3rbCEs4-59" target="zNKK8UCFtOkdq3rbCEs4-2">
          <mxGeometry width="160" relative="1" as="geometry">
            <mxPoint x="1654" y="740" as="sourcePoint" />
            <mxPoint x="1204" y="550" as="targetPoint" />
          </mxGeometry>
        </mxCell>
      </root>
    </mxGraphModel>
  </diagram>
</mxfile>
